HIERARCHY
ROOT Hips
{
	OFFSET 0.00000 0.00000 0.00000
	CHANNELS 6 Xposition Yposition Zposition Zrotation Yrotation Xrotation 
	JOINT LHipJoint
	{
		OFFSET 0 0 0
		CHANNELS 3 Zrotation Yrotation Xrotation
		JOINT LeftHip
		{
			OFFSET 1.37324 -1.83837 0.85674
			CHANNELS 3 Zrotation Yrotation Xrotation
			JOINT LeftKnee
			{
				OFFSET 2.53826 -6.97383 0.00000
				CHANNELS 3 Zrotation Yrotation Xrotation
				JOINT LeftAnkle
				{
					OFFSET 2.65296 -7.28895 0.00000
					CHANNELS 3 Zrotation Yrotation Xrotation
					JOINT LeftToe
					{
						OFFSET 0.22100 -0.60718 2.29776
						CHANNELS 3 Zrotation Yrotation Xrotation
						End Site
						{
							OFFSET 0.00000 -0.00000 1.19228
						}
					}
				}
			}
		}
	}
	JOINT RHipJoint
	{
		OFFSET 0 0 0
		CHANNELS 3 Zrotation Yrotation Xrotation
		JOINT RightHip
		{
			OFFSET -1.30156 -1.83836 0.85673
			CHANNELS 3 Zrotation Yrotation Xrotation
			JOINT RightKnee
			{
				OFFSET -2.63627 -7.24310 0.00000
				CHANNELS 3 Zrotation Yrotation Xrotation
				JOINT RightAnkle
				{
					OFFSET -2.62024 -7.19904 0.00000
					CHANNELS 3 Zrotation Yrotation Xrotation
					JOINT RightToe
					{
						OFFSET -0.20765 -0.57052 2.42402
						CHANNELS 3 Zrotation Yrotation Xrotation
						End Site
						{
							OFFSET -0.00000 -0.00000 1.24980
						}
					}
				}
			}
		}
	}
	JOINT lowerback
	{
		OFFSET 0 0 0
		CHANNELS 3 Zrotation Yrotation Xrotation
		JOINT Chest
		{
			OFFSET 0.05739 2.14162 -0.22815
			CHANNELS 3 Zrotation Yrotation Xrotation
			JOINT Chest2
			{
				OFFSET 0.02798 2.14167 0.08145
				CHANNELS 3 Zrotation Yrotation Xrotation
				JOINT lowerneck
				{
					OFFSET 0 0 0
					CHANNELS 3 Zrotation Yrotation Xrotation
					JOINT Neck
					{
						OFFSET -0.07019 1.58903 0.32980
						CHANNELS 3 Zrotation Yrotation Xrotation
						JOINT Head
						{
							OFFSET -0.03205 1.65283 -0.21190
							CHANNELS 3 Zrotation Yrotation Xrotation
							End Site
							{
								OFFSET -0.00726 1.66788 -0.10849
							}
						}
					}
				}
				JOINT LeftCollar
				{
					OFFSET 0 0 0
					CHANNELS 3 Zrotation Yrotation Xrotation
					JOINT LeftShoulder
					{
						OFFSET 3.92858 0.97533 -0.07938
CHANNELS 3 Zrotation Xrotation Yrotation
						JOINT LeftElbow
						{
OFFSET 0 -5.583450 -0.000000
CHANNELS 3 Zrotation Xrotation Yrotation
							JOINT LeftWrist
							{
OFFSET 0 -3.710870 0.000000
CHANNELS 3 Zrotation Xrotation Yrotation
								JOINT lhand
								{
									OFFSET 0 0 0
CHANNELS 3 Zrotation Xrotation Yrotation
									JOINT LFingers
									{
OFFSET 0 -0.562320 -0.000000
CHANNELS 3 Zrotation Xrotation Yrotation
										End Site
										{
OFFSET 0 -0.453360 -0.000000
										}
									}
								}
								JOINT LThumb
								{
OFFSET 0 0.000000 0.000000
CHANNELS 3 Zrotation Xrotation Yrotation
									End Site
									{
OFFSET 0 -0.460280 0.460280
									}
								}
							}
						}
					}
				}
				JOINT RightCollar
				{
					OFFSET 0 0 0
					CHANNELS 3 Zrotation Yrotation Xrotation
					JOINT RightShoulder
					{
						OFFSET -3.89897 1.08887 -0.22589
CHANNELS 3 Zrotation Xrotation Yrotation
						JOINT RightElbow
						{
OFFSET 0 -5.203570 -0.000000
CHANNELS 3 Zrotation Xrotation Yrotation
							JOINT RightWrist
							{
OFFSET 0 -3.649370 0.000000
CHANNELS 3 Zrotation Xrotation Yrotation
								JOINT rhand
								{
									OFFSET 0 0 0
CHANNELS 3 Zrotation Xrotation Yrotation
									JOINT RFingers
									{
OFFSET 0 -0.618000 -0.000000
CHANNELS 3 Zrotation Xrotation Yrotation
										End Site
										{
OFFSET 0 -0.498240 -0.000000
										}
									}
								}
								JOINT RThumb
								{
OFFSET 0 0.000000 0.000000
CHANNELS 3 Zrotation Xrotation Yrotation
									End Site
									{
OFFSET 0 -0.505850 0.505850
									}
								}
							}
						}
					}
				}
			}
		}
	}
}
MOTION
Frames: 5
Frame Time: 0.008333333333333333
-0.719624 16.252831 -10.161098 3.604435 -2.498576 4.924410 0.000000 0.000000 0.000000 -16.023011 -9.186468 -49.791046 20.454508 19.994818 91.328952 0.372351 -6.374134 -11.064908 0.119369 -2.224584 -6.126713 0.000000 0.000000 0.000000 11.279929 6.894880 -57.529019 -7.092694 -15.406543 49.219073 0.007282 -1.737217 -1.441140 -0.917584 6.083476 -17.033004 1.435246 0.189027 36.893557 1.613730 0.866835 10.945055 0.636121 0.382817 -6.148853 -2.899872 -0.185129 -15.845887 -6.432055 1.032490 6.555100 -1.453143 0.006006 4.567768 0.000000 0.000000 0.000000 19.261544 -6.181490 -17.955231 138.891962 -48.708643 100.731019 26.100249 -18.513656 1.559537 0.000000 0.000000 0.000000 -7.125000 0.000000 0.000000 -0.368686 28.243081 -0.150117 0.000000 0.000000 0.000000 -31.562565 -16.429175 27.462982 -60.192755 -56.361036 -34.501497 -37.606951 -3.362562 2.251095 0.000000 0.000000 0.000000 7.125000 0.000000 0.000000 -8.917420 32.729474 -2.708827
-0.718272 16.227093 -10.048095 3.621406 -2.530129 4.934529 0.000000 0.000000 0.000000 -15.913434 -9.202605 -50.475039 20.409523 19.995855 91.197355 0.397052 -6.267802 -11.380524 0.114208 -2.177052 -5.995139 0.000000 0.000000 0.000000 11.236386 6.990439 -57.600058 -7.196682 -15.493628 49.611520 0.008747 -1.783352 -1.264220 -0.850151 5.868828 -16.407812 1.430739 0.227882 37.083571 1.629889 0.914705 11.079965 0.638262 0.405152 -6.065960 -2.938817 -0.245688 -15.528761 -6.451866 0.931071 6.355801 -1.459228 -0.033683 4.452804 0.000000 0.000000 0.000000 19.336932 -5.915569 -17.433194 138.604585 -48.872829 100.515357 26.076246 -18.570067 1.456811 0.000000 0.000000 0.000000 -7.125000 0.000000 0.000000 -0.386558 28.357842 -0.156450 0.000000 0.000000 0.000000 -32.017396 -16.890924 27.218945 -60.152165 -56.350308 -34.467690 -37.648352 -3.426185 2.144785 0.000000 0.000000 0.000000 7.125000 0.000000 0.000000 -8.940161 32.597922 -2.744482
-0.717179 16.199738 -9.935111 3.636220 -2.553574 4.946628 0.000000 0.000000 0.000000 -15.799561 -9.229762 -51.163199 20.354470 19.996816 91.036348 0.421315 -6.166120 -11.686022 0.108521 -2.122200 -5.843403 0.000000 0.000000 0.000000 11.206914 7.071965 -57.683308 -7.313536 -15.588903 50.048088 0.009470 -1.777923 -1.088391 -0.758733 5.496293 -15.343444 1.426098 0.260888 37.271321 1.643448 0.955247 11.207313 0.640352 0.424067 -5.990026 -2.968919 -0.304451 -15.183937 -6.473408 0.828244 6.151889 -1.466785 -0.073245 4.332130 0.000000 0.000000 0.000000 19.412796 -5.619889 -16.915920 138.304121 -49.041767 100.289044 26.066632 -18.614260 1.364393 0.000000 0.000000 0.000000 -7.125000 0.000000 0.000000 -0.393380 28.460930 -0.158424 0.000000 0.000000 0.000000 -32.484921 -17.351887 26.983878 -60.106899 -56.338312 -34.430008 -37.677320 -3.487385 2.072340 0.000000 0.000000 0.000000 7.125000 0.000000 0.000000 -8.956272 32.508304 -2.768958
-0.716751 16.168253 -9.822175 3.645528 -2.556324 4.963779 0.000000 0.000000 0.000000 -15.674726 -9.285046 -51.861999 20.273718 19.997582 90.800267 0.444461 -6.076307 -11.965690 0.101489 -2.048660 -5.640205 0.000000 0.000000 0.000000 11.213360 7.117672 -57.797731 -7.463231 -15.705084 50.597284 0.008298 -1.640872 -0.915348 -0.606086 4.720731 -13.158022 1.421117 0.278963 37.453289 1.650367 0.977086 11.315358 0.642313 0.434254 -5.931857 -2.976446 -0.358631 -14.768412 -6.499371 0.721822 5.936204 -1.478098 -0.112483 4.196882 0.000000 0.000000 0.000000 19.489875 -5.248245 -16.410809 137.970250 -49.222834 100.035541 26.093744 -18.627265 1.298291 0.000000 0.000000 0.000000 -7.125000 0.000000 0.000000 -0.371991 28.534223 -0.149274 0.000000 0.000000 0.000000 -32.984849 -17.810842 26.771710 -60.049699 -56.323076 -34.382431 -37.674548 -3.542400 2.086335 0.000000 0.000000 0.000000 7.125000 0.000000 0.000000 -8.955460 32.525725 -2.764901
-0.716323 16.136768 -9.709239 3.654836 -2.559073 4.980930 0.000000 0.000000 0.000000 -15.549890 -9.340331 -52.560798 20.192966 19.998348 90.564186 0.467607 -5.986495 -12.245359 0.094457 -1.975120 -5.437006 0.000000 0.000000 0.000000 11.219806 7.163378 -57.912154 -7.612925 -15.821265 51.146479 0.007126 -1.503821 -0.742305 -0.453439 3.945168 -10.972599 1.416136 0.297038 37.635257 1.657286 0.998925 11.423403 0.644273 0.444441 -5.873687 -2.983974 -0.412811 -14.352887 -6.525335 0.615399 5.720520 -1.489412 -0.151721 4.061634 0.000000 0.000000 0.000000 19.566953 -4.876600 -15.905697 137.636378 -49.403901 99.782039 26.120857 -18.640269 1.232188 0.000000 0.000000 0.000000 -7.125000 0.000000 0.000000 -0.350603 28.607515 -0.140124 0.000000 0.000000 0.000000 -33.484777 -18.269797 26.559541 -59.992498 -56.307841 -34.334854 -37.671775 -3.597414 2.100331 0.000000 0.000000 0.000000 7.125000 0.000000 0.000000 -8.954649 32.543147 -2.760845
